<svg width="16" height="18" viewBox="0 0 16 18" fill="none" xmlns="http://www.w3.org/2000/svg">
<path d="M5.6123 16.3111V13.763C5.6123 13.1125 6.14346 12.5852 6.79868 12.5852H9.19382C9.50847 12.5852 9.81023 12.7093 10.0327 12.9302C10.2552 13.151 10.3802 13.4506 10.3802 13.763V16.3111C10.3782 16.5815 10.485 16.8415 10.677 17.0334C10.8689 17.2254 11.13 17.3333 11.4024 17.3333H13.0365C13.7997 17.3353 14.5323 17.0357 15.0726 16.5006C15.613 15.9656 15.9166 15.2391 15.9166 14.4815V7.22234C15.9166 6.61034 15.6434 6.02983 15.1705 5.63718L9.61167 1.22985C8.6447 0.457094 7.25924 0.482044 6.32114 1.28911L0.889157 5.63718C0.39393 6.01825 0.0979399 6.60049 0.083313 7.22234V14.4741C0.083313 16.0532 1.3728 17.3333 2.96346 17.3333H4.56022C5.126 17.3333 5.58581 16.8801 5.58991 16.3185L5.6123 16.3111Z" fill="white"/>
</svg>
