<svg width="67" height="28" viewBox="0 0 67 28" fill="none" xmlns="http://www.w3.org/2000/svg">
<path d="M51.796 0.824585V13.9063L51.6302 14.0441L51.4643 14.1819L51.3054 14.3267L51.1533 14.4714L51.0082 14.6162L50.8631 14.7678L50.7249 14.9194L50.5867 15.0711V0.824585H36.0534V12.7346H34.851V0.824585H20.3178V12.7552H19.1153V0.824585H4.58209V14.4232L0.871033 26.7536H4.13289L5.77073 21.2948H6.24066L8.94965 26.7536H12.8888L10.2627 21.2948H16.2197L14.5681 26.7536H18.1271L19.758 21.3086H20.5458V21.2948H21.6653H21.7552H28.4793L26.9037 26.7398H30.4972L32.0245 21.2948H33.6416L33.683 26.7398H36.6961L40.1584 21.2948H42.4251L41.2503 26.7398H44.7885L45.9426 21.2948H47.9882L47.9744 21.605L47.9817 21.922L47.9955 22.2253L48.0231 22.5285L48.0438 22.6733L48.0646 22.818L48.0922 22.9628L48.1198 23.1075L48.1543 23.2522L48.1889 23.3901L48.2303 23.5279L48.2717 23.6658L48.3201 23.8036L48.3685 23.9346L48.4238 24.0655L48.4791 24.1896L48.5413 24.3206L48.6036 24.4446L48.6727 24.5618L48.7418 24.6858L48.8179 24.803L48.9008 24.9133L48.9837 25.0305L49.0736 25.1338L49.1634 25.2441L49.2533 25.3475L49.3569 25.4509L49.4606 25.5474L49.5919 25.6577L49.7232 25.768L49.8614 25.8713L50.0065 25.9678L50.1516 26.0643L50.2968 26.1539L50.4488 26.2297L50.6077 26.3124L50.7598 26.3813L50.9187 26.4502L51.0777 26.5123L51.2435 26.5743L51.4094 26.6295L51.5753 26.6777L51.7411 26.726L51.907 26.7673L52.2387 26.8431L52.5773 26.8983L52.909 26.9465L53.2407 26.9879L53.5655 27.0154L53.8834 27.0293L54.1944 27.0431H54.4916L54.8924 27.0365L55.2932 27.03L55.7009 27.0093L56.1087 26.9886L56.5164 26.9541L56.9241 26.9196L57.3319 26.8783L57.7396 26.83L58.1542 26.7749L58.5689 26.7128L58.9835 26.6439L59.3982 26.575L59.8128 26.4992L60.2275 26.4165L60.6421 26.3338L61.0636 26.2373L62.2938 21.2955H66.3296V0.825223H51.7964L51.796 0.824585ZM5.92967 20.7848L5.95038 20.709L5.9988 20.7848H5.92967ZM18.5901 13.4514L18.3828 14.1475L16.4478 20.5574L16.3717 20.7848H10.0139L9.52322 19.7372L16.3717 12.7552H11.9696L6.61381 18.5103L8.3484 12.7552H5.10037V1.34152H18.5901V13.4514H18.5901ZM22.3426 18.8687L22.2389 18.8753L22.1422 18.8818L22.0385 18.8884H21.928H21.7828H21.6584L21.541 18.8949H21.4304L20.5665 18.8884L20.9674 17.4134L21.154 16.6828L21.6101 14.9666H21.7552H21.9072L22.0523 14.9601H22.1906H22.8609L23.2686 14.9666L23.6418 14.9804L23.8077 14.987L23.9666 15.0008L24.1186 15.0215L24.2569 15.0422L24.3813 15.0628L24.4987 15.0973L24.6093 15.1318L24.7061 15.1732L24.789 15.2146L24.865 15.2697L24.9342 15.3249L24.9894 15.3938L25.0239 15.449L25.0515 15.5042L25.0792 15.5662L25.0999 15.6352L25.1137 15.7109L25.121 15.7867V15.8694V15.959L25.1137 16.0555L25.1072 16.152L25.0865 16.2623L25.0658 16.3726L25.0035 16.6069L24.9275 16.8688L24.8515 17.0894L24.7685 17.303L24.6787 17.5029L24.5819 17.689L24.5335 17.7717L24.4851 17.8544L24.4298 17.9371L24.3676 18.0129L24.3053 18.0887L24.2431 18.1576L24.174 18.2265L24.1048 18.2886L24.0288 18.3437L23.9528 18.4058L23.8698 18.454L23.78 18.5092L23.6901 18.5574L23.5934 18.5988L23.4966 18.6402L23.393 18.6747L23.2824 18.716L23.1649 18.7436L23.0405 18.7711L22.9162 18.7987L22.7779 18.8194L22.6397 18.84L22.4946 18.8539L22.3426 18.8677L22.3426 18.8687ZM32.1696 20.7848L33.5863 15.7534L33.6416 20.7848H32.1697H32.1696ZM34.3258 12.7346H30.9533L28.6313 20.7848H25.0516L25.2175 20.7159L25.3833 20.647L25.5423 20.5781L25.7012 20.5023L25.8532 20.4265L25.9984 20.3369L26.1435 20.2542L26.2817 20.1646L26.4199 20.0681L26.5512 19.9716L26.6756 19.8751L26.8 19.7648L26.9175 19.6615L27.0281 19.5443L27.1386 19.434L27.2423 19.3099L27.346 19.1928L27.4427 19.0618L27.5325 18.9378L27.6224 18.7999L27.7053 18.6621L27.7813 18.5242L27.8574 18.3795L27.9265 18.2279L27.9956 18.0762L28.0579 17.9246L28.1131 17.7661L28.1684 17.6006L28.2099 17.4352L28.2583 17.2698L28.2928 17.0906L28.3273 16.9183L28.3758 16.6426L28.4172 16.3807L28.4448 16.1326L28.4655 15.8982L28.4728 15.6639L28.4655 15.4502L28.459 15.2366L28.4314 15.0367L28.4038 14.8506L28.3554 14.6645L28.307 14.4922L28.2378 14.3268L28.1618 14.1683L28.0789 14.0097L27.9821 13.865L27.8715 13.7272L27.7817 13.6307L27.6919 13.5342L27.5951 13.4515L27.4914 13.3757L27.3809 13.2999L27.2703 13.231L27.1528 13.1689L27.0353 13.1138L26.9109 13.0586L26.7866 13.0172L26.6552 12.9758L26.5239 12.9345L26.3857 12.9L26.2475 12.8724L26.1093 12.8449L25.9642 12.8242L25.667 12.7828L25.3699 12.7621L25.0658 12.7415L24.7548 12.7349H24.1328H23.5178H23.3243H22.9788H22.5503H22.0734H21.6104H21.2165H20.9401H20.8364V1.34188H34.3261V12.7349L34.3258 12.7346ZM42.5219 20.7848H40.497L43.5654 15.9602L42.5219 20.7848ZM50.0614 12.962L50.0541 15.7534L49.8814 15.9946L49.7224 16.2428L49.5635 16.4909L49.4183 16.739L49.2801 16.9871L49.1419 17.2422L49.0244 17.4903L48.907 17.7384L48.7964 17.9796L48.6996 18.2278L48.6029 18.469L48.52 18.7033L48.4439 18.9377L48.3748 19.1651L48.3126 19.3857L48.2572 19.6062L48.2227 19.751L48.1882 19.9026L48.1537 20.0473L48.126 20.199L48.0984 20.3437L48.0777 20.4884L48.057 20.6332L48.0432 20.7848H46.0598L47.7529 12.7552L42.0447 12.7487L36.9377 20.7852H36.5645V1.34187H50.0611V12.9624L50.0614 12.962ZM57.8429 24.0725L57.5596 24.1207L57.2693 24.1621L56.9791 24.2034L56.6957 24.2379L56.4124 24.2655L56.129 24.2862L55.8526 24.3H55.5762H55.3965L55.2168 24.2934L55.0441 24.2796L54.8713 24.2589L54.7054 24.2314L54.5465 24.2038L54.3875 24.1693L54.2355 24.128L54.0904 24.0797L53.9453 24.0315L53.807 23.9695L53.6757 23.9074L53.5444 23.8316L53.42 23.7558L53.3026 23.6731L53.192 23.5904L53.0814 23.4939L52.9847 23.3906L52.8879 23.2872L52.7981 23.17L52.7152 23.0528L52.6391 22.9219L52.57 22.7909L52.5008 22.6531L52.4455 22.5083L52.3971 22.3498L52.3557 22.1913L52.3142 22.0259L52.2866 21.8536L52.2659 21.6744L52.2521 21.4883L52.2448 21.2953H58.5335L57.8425 24.0729L57.8429 24.0725ZM65.8179 20.7848H62.4178L62.9776 18.5379H56.1636L55.6038 20.7848H52.3074V20.323L52.3489 20.13L52.3834 19.9371L52.4248 19.7303L52.4662 19.5235L52.5285 19.2961L52.5907 19.0686L52.6598 18.8412L52.7359 18.6206L52.8188 18.4001L52.9086 18.1795L53.0054 17.9658L53.1021 17.7522L53.2127 17.5385L53.3233 17.3386L53.4408 17.1319L53.5721 16.9389L53.7034 16.7459L53.8347 16.5598L53.9798 16.3806L54.1318 16.2083L54.2908 16.0429L54.4497 15.8913L54.6225 15.7396L54.7953 15.5949L54.9749 15.4639L55.1684 15.3399L55.3619 15.2296L55.5623 15.1262L55.7697 15.0297L55.9839 14.947L56.205 14.8781L56.4331 14.8229L56.6681 14.7747L56.9099 14.7402L57.1587 14.7195L57.4144 14.713L57.6148 14.7195L57.8152 14.7333L58.0156 14.7609L58.2091 14.8022L58.3059 14.8298L58.3957 14.8573L58.4856 14.8849L58.5685 14.9262L58.6514 14.9607L58.7344 15.009L58.8104 15.0572L58.8864 15.1054L58.9556 15.1675L59.0247 15.2295L59.0869 15.2916L59.1492 15.3674L59.2045 15.4363L59.2529 15.519L59.2943 15.6086L59.3358 15.6982L59.3703 15.7947L59.3979 15.8981L59.4186 16.0014L59.4393 16.1186L59.4467 16.2358V16.3598V16.4908L59.4328 16.6286H63.4963L63.5586 16.3461L63.6139 16.0221L63.6415 15.8498L63.6553 15.6637L63.6691 15.4776V15.2846L63.6626 15.0848L63.6419 14.878L63.6212 14.7815L63.6074 14.6781L63.5798 14.5747L63.5522 14.4713L63.5176 14.3611L63.4831 14.2577L63.4417 14.1543L63.3932 14.0509L63.3448 13.9475L63.2826 13.8441L63.2204 13.7407L63.1512 13.6374L63.0683 13.5271L62.9785 13.4237L62.8886 13.3203L62.7919 13.2238L62.6882 13.1273L62.5777 13.0377L62.4671 12.955L62.3496 12.8723L62.2252 12.7896L62.1008 12.7207L61.9695 12.6518L61.8313 12.5829L61.6931 12.5208L61.548 12.4588L61.3959 12.4036L61.2439 12.3484L61.0919 12.3002L60.926 12.2588L60.767 12.2174L60.5943 12.1761L60.4215 12.1416L60.2487 12.1071L60.0691 12.0795L59.8825 12.0589L59.5024 12.0175L59.1154 11.983L58.7077 11.9692L58.293 11.9626L57.982 11.9692L57.6572 11.9757L57.3186 11.9964L56.9662 12.0239L56.5999 12.0653L56.2267 12.1135L55.8466 12.1756L55.4596 12.2583L55.2661 12.2997L55.0657 12.3479L54.8722 12.4031L54.6718 12.4583L54.4714 12.5203L54.271 12.5892L54.0706 12.6581L53.8771 12.7339L53.6767 12.8166L53.4763 12.9062L53.2828 12.9958L53.0823 13.0923L52.8888 13.1957L52.6953 13.306L52.5018 13.4163L52.3083 13.5403V1.34087H65.8188V20.7842L65.8179 20.7848Z" fill="#00338D"/>
</svg>
